<?xml version="1.0" encoding="UTF-8"?>
<svg width="256px" height="256px" viewBox="0 0 256 256" version="1.1" xmlns="http://www.w3.org/2000/svg" xmlns:xlink="http://www.w3.org/1999/xlink">
    <!-- Generator: Sketch 55.2 (78181) - https://sketchapp.com -->
    <title>Beer</title>
    <desc>Created with Sketch.</desc>
    <g id="Beer" stroke="none" stroke-width="1" fill="none" fill-rule="evenodd">
        <circle id="Backing" fill="#E5AD37" cx="128" cy="128" r="128"></circle>
        <g id="Group" transform="translate(60.000000, 24.000000)" fill="#FFFFFF">
            <path d="M104.141433,28 L7.30005435,28 C7.10329078,27.0306702 7,26.0273975 7,25 C7,16.7157288 13.7157288,10 22,10 C24.7741563,10 27.3724193,10.7530891 29.6015031,12.0659817 C33.9824806,4.83346337 41.9267824,0 51,0 C62.1335986,0 71.5673495,7.27791364 74.8032868,17.3357753 C76.6921339,16.47782 78.7902665,16 81,16 C83.3749276,16 85.6209447,16.5519316 87.6167799,17.5345236 C89.0261809,13.7197305 92.6954769,11 97,11 C102.522847,11 107,15.4771525 107,21 C107,23.7254534 105.909682,26.1962493 104.141433,28 Z" id="Combined-Shape"></path>
            <path d="M9,174 L117,174 C121.970563,174 126,178.029437 126,183 L126,193 C126,197.970563 121.970563,202 117,202 L9,202 C4.02943725,202 -6.49670898e-15,197.970563 0,193 L0,183 C-6.08718376e-16,178.029437 4.02943725,174 9,174 Z" id="Rectangle-Copy"></path>
            <path d="M119,165 L7,165 L7,73 L35,73 L35,102 C35,109.731986 41.2680135,116 49,116 C56.7319865,116 63,109.731986 63,102 L63,73 L119,73 L119,165 Z M35,36 L35,64 L9,64 C4.02943725,64 -6.49670898e-15,59.9705627 0,55 L0,45 C-6.08718376e-16,40.0294373 4.02943725,36 9,36 L35,36 Z M63,36 L117,36 C121.970563,36 126,40.0294373 126,45 L126,55 C126,59.9705627 121.970563,64 117,64 L63,64 L63,36 Z M61,120 L61,155 L65,155 L65,120 L61,120 Z M30,124 L30,155 L34,155 L34,124 L30,124 Z M92,84 L92,155 L96,155 L96,84 L92,84 Z" id="Combined-Shape"></path>
            <path d="M126,142 L132,142 C135.865993,142 139,138.865993 139,135 L139,102 C139,98.1340068 135.865993,95 132,95 L126,95 L126,78 L136,78 C146.49341,78 155,86.5065898 155,97 L155,141 C155,151.49341 146.49341,160 136,160 L126,160 L126,142 Z" id="Combined-Shape"></path>
            <path d="M43,28 L55,28 L55,102 C55,105.313708 52.3137085,108 49,108 C45.6862915,108 43,105.313708 43,102 L43,28 Z" id="Rectangle"></path>
        </g>
    </g>
</svg>