<?xml version="1.0" encoding="UTF-8"?>
<svg width="256px" height="256px" viewBox="0 0 256 256" version="1.1" xmlns="http://www.w3.org/2000/svg" xmlns:xlink="http://www.w3.org/1999/xlink">
    <!-- Generator: Sketch 55.2 (78181) - https://sketchapp.com -->
    <title>Crime</title>
    <desc>Created with Sketch.</desc>
    <g id="Crime" stroke="none" stroke-width="1" fill="none" fill-rule="evenodd">
        <circle id="Backing" fill="#EE5252" cx="128" cy="128" r="128"></circle>
        <path d="M76.3018911,81.6386719 L179.698109,81.6386719 L210.468664,98.2050781 L45.531336,98.2050781 L76.3018911,81.6386719 Z M80.0344425,69.6386719 L90.7891485,29 L128,47.4690794 L165.210851,29 L175.965558,69.6386719 L80.0344425,69.6386719 Z M179.183508,130.24707 C179.183508,140.038486 168.77796,147.641836 147.966864,153.05712 C148.313136,144.61908 147.537043,139.22504 145.638586,136.875 C143.451737,134.167969 139.701411,131.958659 134.387609,130.24707 L128.101649,133.947699 L128.101649,134.067383 L128,134.007541 L127.898351,134.067383 L127.898351,133.947699 L121.612391,130.24707 C116.298589,131.958659 112.548263,134.167969 110.361414,136.875 C108.462957,139.22504 107.686864,144.61908 108.033136,153.05712 C87.2220402,147.641836 76.8164923,140.038486 76.8164923,130.24707 L76.8164923,111.62649 C82.7694134,111.597985 87.6574342,112.455562 91.4805548,114.199219 C97.3731329,116.886719 101.892664,122.216797 108.847742,122.216797 C115.80282,122.216797 122.386805,116.921299 127.607508,116.921299 C127.767091,116.921299 127.923015,116.909188 128.075281,116.884966 C128.227547,116.909188 128.383472,116.921299 128.543055,116.921299 C133.763758,116.921299 140.347742,122.216797 147.30282,122.216797 C154.257899,122.216797 158.77743,116.886719 164.670008,114.199219 C168.460848,112.470284 173.298681,111.61253 179.183508,111.625502 L179.183508,130.24707 Z M128.101649,157.113281 C128.067749,157.107966 128.033866,157.102647 128,157.097325 C127.966134,157.102647 127.932251,157.107966 127.898351,157.113281 L127.898351,157.081332 C123.354228,156.365542 119.113281,155.586 115.17551,154.742707 C114.308239,147.421615 114.507575,143.08583 115.773524,141.735352 C117.268466,140.140589 121.343958,139.46195 128,139.699434 C134.656042,139.46195 138.731534,140.140589 140.226476,141.735352 C141.492425,143.08583 141.691761,147.421615 140.82449,154.742707 C136.886719,155.586 132.645772,156.365542 128.101649,157.081332 L128.101649,157.113281 Z M142.115148,180.136719 C149.781065,161.413574 182.183508,146.042969 184.454992,142.246094 C185.969315,139.714844 186.568599,136.916992 186.252844,133.852539 L203.200109,133.852539 L179.183508,168.171875 C203.154862,166.260091 216.607336,167.400716 219.54093,171.59375 C221.195736,173.958992 223.34876,178.652181 226,185.673317 C206.72654,219.895121 169.883775,243.533192 128.335923,245.69128 L128.336249,245.724299 C128.224132,245.719108 128.112049,245.71376 128,245.708255 C127.887951,245.71376 127.775868,245.719108 127.663751,245.724299 L127.664077,245.69128 C86.1162253,243.533192 49.27346,219.895121 30,185.673317 C32.6512403,178.652181 34.8042638,173.958992 36.4590704,171.59375 C39.3926641,167.400716 52.8451381,166.260091 76.8164923,168.171875 L52.7998907,133.852539 L69.7471563,133.852539 C69.4314011,136.916992 70.030685,139.714844 71.5450079,142.246094 C73.8164923,146.042969 106.218935,161.413574 113.884852,180.136719 C121.53243,198.815076 113.921439,209.547697 128,221.825714 C142.078561,209.547697 134.46757,198.815076 142.115148,180.136719 Z M95.2784063,103.857422 L120.504969,106.857422 C118.582443,110.036342 114.479415,111.625802 108.195887,111.625802 C101.912358,111.625802 97.6065313,109.036342 95.2784063,103.857422 Z M133.322352,106.857422 L158.548914,103.857422 C156.626388,109.036342 152.523361,111.625802 146.239832,111.625802 C139.956303,111.625802 135.650477,110.036342 133.322352,106.857422 Z" id="Shape" fill="#FFFFFF"></path>
    </g>
</svg>