<?xml version="1.0" encoding="UTF-8"?>
<svg width="256px" height="256px" viewBox="0 0 256 256" version="1.1" xmlns="http://www.w3.org/2000/svg" xmlns:xlink="http://www.w3.org/1999/xlink">
    <!-- Generator: Sketch 55.2 (78181) - https://sketchapp.com -->
    <title>Walking</title>
    <desc>Created with Sketch.</desc>
    <g id="Walking" stroke="none" stroke-width="1" fill="none" fill-rule="evenodd">
        <circle id="Backing" fill="#28ADD9" cx="128" cy="128" r="128"></circle>
        <path d="M219.427734,138.911453 C210.604902,138.938321 201.776126,139.634504 192.941406,141 C165.905273,145.178711 135.310547,160.289062 101.022461,161.859375 C69.373663,163.308814 40.9696999,155.506314 28.3445444,152.616239 C28.8744471,144.570313 31.4489403,126.5348 42.9394531,117.161133 C51.0335023,110.558214 69.4296909,109.086542 85.9672544,107.53641 L91.9750641,141.086784 L104.641606,138.567492 L97.3693263,106.33672 C102.38437,105.703666 106.862194,104.921254 110.343588,103.79276 L127,133.654297 L138.15625,127.148438 L120.108661,97.9438025 C126.231039,92.3803827 131.194167,83.7324485 134.998047,72 C147.660807,78.3177083 161.625,81.4765625 176.890625,81.4765625 C192.15625,81.4765625 206.335286,78.3177083 219.427734,72 L219.427734,138.911453 Z M219.427734,148.032227 L219.427734,182.262162 L169.160156,182.262162 L169.160156,163.947266 C146.376302,176.157197 123.944661,182.262162 101.865234,182.262162 C79.7858073,182.262162 55.2363281,179.084931 28.2167969,172.730469 L28.2167969,159.68675 C55.4038391,167.889205 81.0057271,171.172984 105.022461,169.538086 C142.235352,167.004883 178.90918,145.845703 219.427734,148.032227 Z" id="Combined-Shape" fill="#FFFFFF"></path>
    </g>
</svg>