<?xml version="1.0" encoding="UTF-8"?>
<svg width="256px" height="256px" viewBox="0 0 256 256" version="1.1" xmlns="http://www.w3.org/2000/svg" xmlns:xlink="http://www.w3.org/1999/xlink">
    <!-- Generator: Sketch 55.2 (78181) - https://sketchapp.com -->
    <title>Dining</title>
    <desc>Created with Sketch.</desc>
    <g id="Dining" stroke="none" stroke-width="1" fill="none" fill-rule="evenodd">
        <circle id="Backing" fill="#B153C2" cx="128" cy="128" r="128"></circle>
        <path d="M153.74289,121.395992 L158.848598,227.636455 L158.815029,227.865928 C157.574234,236.347935 149.897541,242.187155 141.668657,240.908192 C135.049855,239.879474 129.882857,234.473447 128.983733,227.636455 L134.089442,121.395992 C120.943482,117.102903 111.416166,104.425715 111.416166,89.4548544 L111.416166,43.2795791 C111.416166,39.7793183 114.169009,36.9417962 117.564814,36.9417962 C120.960619,36.9417962 123.713463,39.7793183 123.713463,43.2795791 L123.713463,83.02465 C123.713463,87.0249481 126.85957,90.2678305 130.74049,90.2678305 C134.62141,90.2678305 137.767517,87.0249481 137.767517,83.02465 L137.767517,43.2795791 C137.767517,39.7793183 140.520361,36.9417962 143.916166,36.9417962 C147.31197,36.9417962 150.064814,39.7793183 150.064814,43.2795791 L150.064814,83.02465 C150.064814,87.0249481 153.210921,90.2678305 157.091841,90.2678305 C160.972761,90.2678305 164.118868,87.0249481 164.118868,83.02465 L164.118868,43.2795791 C164.118868,39.7793183 166.871712,36.9417962 170.267517,36.9417962 C173.663322,36.9417962 176.416166,39.7793183 176.416166,43.2795791 L176.416166,89.4548544 C176.416166,104.425715 166.888849,117.102903 153.74289,121.395992 Z" id="Path" fill="#FFFFFF" transform="translate(143.916166, 139.012864) scale(-1, 1) rotate(-45.000000) translate(-143.916166, -139.012864) "></path>
        <path d="M124.742834,122.202618 L129.848542,228.443081 L129.814974,228.672554 C128.574178,237.154561 120.897486,242.993782 112.668602,241.714819 C106.049799,240.6861 100.882801,235.280073 99.9836774,228.443081 L105.089386,122.202618 C91.9434264,117.909529 82.4161098,105.232341 82.4161098,90.2614805 C84.3773585,50.0962621 94.8400985,29.9896558 113.80433,29.9416617 C133.060409,29.8957145 144.264336,50.0023208 147.41611,90.2614805 C147.41611,105.232341 137.888793,117.909529 124.742834,122.202618 Z" id="Path-Copy" fill="#FFFFFF" transform="translate(114.916110, 135.916110) scale(-1, 1) rotate(-315.000000) translate(-114.916110, -135.916110) "></path>
    </g>
</svg>