<?xml version="1.0" encoding="UTF-8"?>
<svg width="256px" height="256px" viewBox="0 0 256 256" version="1.1" xmlns="http://www.w3.org/2000/svg" xmlns:xlink="http://www.w3.org/1999/xlink">
    <!-- Generator: Sketch 55.2 (78181) - https://sketchapp.com -->
    <title>Events</title>
    <desc>Created with Sketch.</desc>
    <g id="Events" stroke="none" stroke-width="1" fill="none" fill-rule="evenodd">
        <circle id="Backing" fill="#EE5252" cx="128" cy="128" r="128"></circle>
        <path d="M150.043288,55.5741107 C153.212314,53.3908057 156.484013,51.1994355 159.858383,49 C164.807086,52.635138 169.403718,54.4527069 173.64828,54.4527069 C177.795303,54.4527069 182.77438,53.1245589 188.58551,50.4682627 L228.477248,90.3020794 C223.810294,92.8601634 221.081172,96.1379117 220.289882,100.135324 C219.539841,103.924355 221.583352,108.074578 226.420416,112.585993 C204.835535,125.784498 186.677765,140.147622 171.947108,155.675363 C158.201354,170.164908 146.746334,186.881173 137.582047,205.824158 C134.238984,202.504258 130.621739,200.844308 126.730311,200.844308 C124.50988,200.844308 122.48536,201.235369 120.656751,202.01749 C122.845489,193.664186 125.493706,185.565853 128.601403,177.722492 L138.615077,188.199289 C149.304205,171.229888 158.726568,158.200591 166.882167,149.111398 C175.037766,140.022206 188.307623,128.561594 206.691737,114.729562 L174.015016,83.4655803 C174.400752,79.7570714 176.444518,76.2058444 180.146314,72.8118994 L150.043288,55.5741107 Z M180.509473,99.1561799 L195.077479,113.385878 C182.308971,123.41542 171.821296,132.79498 163.614452,141.524559 C155.407609,150.254137 146.452527,162.116905 136.749208,177.112863 L131.26396,171.322259 C133.64673,165.859176 136.260587,160.524327 139.105532,155.317711 C144.070432,146.231302 149.829506,137.195842 156.382752,128.211331 L163.368781,126.988973 L160.014368,123.344108 C166.197232,115.23984 173.028934,107.177197 180.509473,99.1561799 Z" id="Combined-Shape" fill="#FFFFFF"></path>
        <path d="M25.9366239,142.54313 C36.7044053,123.601395 48.5754466,107.421639 61.5497479,94.0038622 C74.8592635,80.2394134 92.6076833,66.1262715 114.795007,51.6644365 C119.74371,55.2995745 124.340342,57.1171435 128.584904,57.1171435 C132.731927,57.1171435 137.711004,55.7889954 143.522134,53.1326993 L183.413872,92.9665159 C178.746918,95.5245999 176.017796,98.8023482 175.226506,102.799761 C174.476465,106.588791 176.519976,110.739014 181.35704,115.250429 C159.772159,128.448935 141.614389,142.812058 126.883732,158.3398 C113.137978,172.829345 101.682957,189.545609 92.5186705,208.488594 C89.1756078,205.168695 85.5583628,203.508745 81.6669354,203.508745 C76.0559315,203.508745 71.6959533,206.005929 68.5870008,211.000296 L29.0550842,170.564551 C31.6218391,164.100092 32.9052166,158.933541 32.9052166,155.064897 C32.9052166,151.28287 30.5823524,147.108948 25.9366239,142.54313 Z M93.551701,190.863726 C104.240829,173.894324 113.663192,160.865028 121.818791,151.775835 C129.97439,142.686642 143.244247,131.22603 161.628361,117.393999 L107.959416,66.0453661 C94.0141033,75.2172411 81.8327882,84.824663 71.4154705,94.8676318 C60.9981528,104.910601 50.4992921,118.204871 39.9188885,134.750444 L93.551701,190.863726 Z M48.0141033,133.674426 C53.0148992,125.260137 60.2005146,115.870876 69.5709496,105.506643 C78.9413846,95.142409 91.329754,84.5659614 106.736058,73.7772997 L150.014103,116.050315 C137.245595,126.079856 126.757919,135.459416 118.551076,144.188995 C110.344233,152.918574 101.389151,164.781342 91.6858317,179.7773 L48.0141033,133.674426 Z M89.3656493,132.709626 L94.799387,146.758633 L102.927165,132.344168 L118.305405,129.653409 L108.382417,118.87121 L112.452955,103.159223 L98.1924331,110.909922 L85.3299234,103.890139 L86.4394241,119.462534 L74.4194186,130.836056 L89.3656493,132.709626 Z" id="Combined-Shape" fill="#FFFFFF" transform="translate(104.675248, 131.332366) rotate(-15.000000) translate(-104.675248, -131.332366) "></path>
    </g>
</svg>