<?xml version="1.0" encoding="UTF-8"?>
<svg width="256px" height="256px" viewBox="0 0 256 256" version="1.1" xmlns="http://www.w3.org/2000/svg" xmlns:xlink="http://www.w3.org/1999/xlink">
    <!-- Generator: Sketch 55.2 (78181) - https://sketchapp.com -->
    <title>Park</title>
    <desc>Created with Sketch.</desc>
    <g id="Park" stroke="none" stroke-width="1" fill="none" fill-rule="evenodd">
        <circle id="Backing" fill="#2BC44C" cx="128" cy="128" r="128"></circle>
        <g id="Group" transform="translate(46.000000, 21.000000)" fill="#FFFFFF">
            <path d="M36.0748706,35.6101377 C37.6498907,15.777533 63.8769131,5.68434189e-14 96,5.68434189e-14 C129.137085,5.68434189e-14 156,16.7893219 156,37.5 C156,39.4956367 155.750582,41.4548642 155.270167,43.36617 C176.141245,48.6901274 191,62.4119564 191,78.5 C191,97.566715 170.129748,113.309902 143.115285,115.689077 C146.045094,137.353791 141.737135,162.889725 130.191406,192.296875 L96.8125,192.296875 C105.072834,172.078375 111.45658,155.170285 115.963739,141.572606 C101.363087,130.099935 92.1225369,120.248732 88.2420873,112.018995 C83.1737353,112.661316 77.9059643,113 72.5,113 C32.4593556,113 0,94.4198171 0,71.5 C0,56.1805575 14.501186,42.7998424 36.0748706,35.6101377 Z M123.233394,114.984543 C116.141733,113.835242 109.582087,111.749651 103.850922,108.929907 C101.841626,109.482346 99.7809773,109.983333 97.6741883,110.429887 C102.358424,116.756931 109.749948,122.969145 119.84876,129.066529 C121.407204,123.613577 122.535416,118.919582 123.233394,114.984543 Z" id="Combined-Shape"></path>
            <path d="M28.5568955,165.632398 L8.01184739,165.632398 C4.77335894,165.632398 2.76940981,160.140691 2,149.157278 L14.0236948,149.157278 L14.0236948,125 L23.2959646,136.585127 L32.5204958,136.585127 L32.5204958,125 L41.7927656,136.585127 L41.7688962,136.585127 L41.7688962,151.108762 L80.0836983,151.108762 L80.0836983,133.944466 C84.6945661,137.281825 87,140.651633 87,144.053891 C87,147.456149 84.6945661,151.903131 80.0836983,157.394838 L80.0836983,196 L71.8352978,196 L71.8352978,180.229033 L51.0172967,183.289339 L51.0172967,196 L42.7688962,196 L42.7688962,184.717482 L36.805296,185.329543 L36.805296,196 L28.5568955,196 L28.5568955,165.632398 Z M59,187.444444 L66,186 L66,196 L59,196 L59,187.444444 Z" id="Shape" transform="translate(44.500000, 160.500000) scale(-1, 1) translate(-44.500000, -160.500000) "></path>
        </g>
    </g>
</svg>