<?xml version="1.0" encoding="UTF-8"?>
<svg width="256px" height="256px" viewBox="0 0 256 256" version="1.1" xmlns="http://www.w3.org/2000/svg" xmlns:xlink="http://www.w3.org/1999/xlink">
    <!-- Generator: Sketch 55.2 (78181) - https://sketchapp.com -->
    <title>Bus</title>
    <desc>Created with Sketch.</desc>
    <g id="Bus" stroke="none" stroke-width="1" fill="none" fill-rule="evenodd">
        <circle id="Backing" fill="#535DE1" cx="128" cy="128" r="128"></circle>
        <path d="M132.939359,71.954929 L99.6279174,132.165517 C98.8815677,133.514547 97.2342043,134.078245 95.8178545,133.46925 L93.2009639,132.344053 C91.678849,131.689582 90.9754847,129.92511 91.6299557,128.402996 C91.6691713,128.311791 91.7128899,128.22259 91.7609502,128.135721 L122.842912,71.954929 L63.3432836,71.954929 L63.3432836,152.871957 L193.791045,152.871957 L193.791045,71.954929 L132.939359,71.954929 Z M104.179104,37.1222173 L104.179104,36 C104.179104,31.581722 107.760826,28 112.179104,28 L143.820896,28 C148.239174,28 151.820896,31.581722 151.820896,36 L151.820896,37.404929 C169.931843,39.6166902 184.414886,44.4247672 195.270024,51.8291601 C200.732211,55.5549723 204,61.7395712 204,68.3514664 L204,180 C204,184.418278 200.418278,188 196,188 L60,188 C55.581722,188 52,184.418278 52,180 L52,67.765879 C52,61.3641844 55.0645009,55.3493351 60.2433641,51.5862154 C70.6987718,43.988998 85.3440186,39.1676653 104.179104,37.1222173 Z M92.4297628,48.9784889 C90.7746057,48.9784889 89.4328358,50.3202588 89.4328358,51.9754158 C89.4328358,53.6305729 90.7746057,54.9723428 92.4297628,54.9723428 L163.570237,54.9723428 C165.225394,54.9723428 166.567164,53.6305729 166.567164,51.9754158 C166.567164,50.3202588 165.225394,48.9784889 163.570237,48.9784889 L92.4297628,48.9784889 Z M65.3432836,164.859665 C64.2387141,164.859665 63.3432836,165.755096 63.3432836,166.859665 L63.3432836,171.850446 C63.3432836,172.955016 64.2387141,173.850446 65.3432836,173.850446 L95.3731343,173.850446 C96.4777038,173.850446 97.3731343,172.955016 97.3731343,171.850446 L97.3731343,166.859665 C97.3731343,165.755096 96.4777038,164.859665 95.3731343,164.859665 L65.3432836,164.859665 Z M161.761194,164.859665 C160.656625,164.859665 159.761194,165.755096 159.761194,166.859665 L159.761194,171.850446 C159.761194,172.955016 160.656625,173.850446 161.761194,173.850446 L191.791045,173.850446 C192.895614,173.850446 193.791045,172.955016 193.791045,171.850446 L193.791045,166.859665 C193.791045,165.755096 192.895614,164.859665 191.791045,164.859665 L161.761194,164.859665 Z M63,193 L97,193 L97,201 C97,203.761424 94.7614237,206 92,206 L68,206 C65.2385763,206 63,203.761424 63,201 L63,193 Z M159,193 L193,193 L193,201 C193,203.761424 190.761424,206 188,206 L164,206 C161.238576,206 159,203.761424 159,201 L159,193 Z" id="Combined-Shape" fill="#FFFFFF"></path>
    </g>
</svg>